# xmcd
#
# Track frame offsets:
#	150
#	18446
#	33920
#	46451
#	62797
#	76369
#	92572
#	106952
#	125500
#	141416
#	154098
#	171489
#	187087
#
# Disc length: 2635 seconds
#
# Revision: 1
# Processed by: cddbd v1.5.2PL0 Copyright (c) Steve Scherf et al.
# Submitted via: audiograbber 1.83.01
#
DISCID=b20a490d
DTITLE=Bryan Cohen and The A.M. Disasters - Gone Awry
DYEAR=1999
DGENRE=Country Rock
TTITLE0=All That Ills My Dear
TTITLE1=Wait, Go, Now
TTITLE2=New Years Day
TTITLE3=Road Signs
TTITLE4=San Francisco
TTITLE5=Slide Projector
TTITLE6=Samantha
TTITLE7=Train Song (Just Another)
TTITLE8=Fall Apart
TTITLE9=Somewhere In Between
TTITLE10=Over Now
TTITLE11=Moving Out This Year
TTITLE12=Lullaby No. 13
EXTD=
EXTT0=
EXTT1=
EXTT2=
EXTT3=
EXTT4=
EXTT5=
EXTT6=
EXTT7=
EXTT8=
EXTT9=
EXTT10=
EXTT11=
EXTT12=
PLAYORDER=
